<mxfile host="Electron" modified="2024-01-01T03:02:15.012Z" agent="Mozilla/5.0 (X11; Linux x86_64) AppleWebKit/537.36 (KHTML, like Gecko) draw.io/22.1.16 Chrome/120.0.6099.109 Electron/28.1.0 Safari/537.36" etag="3Kd8v3S4JJc5jPXEhqCi" version="22.1.16" type="device">
  <diagram name="Page-1" id="E9eqPzyHWGKcI_5cox_O">
    <mxGraphModel dx="818" dy="531" grid="1" gridSize="10" guides="1" tooltips="1" connect="1" arrows="1" fold="1" page="1" pageScale="1" pageWidth="827" pageHeight="1169" math="0" shadow="0">
      <root>
        <mxCell id="0" />
        <mxCell id="1" parent="0" />
        <mxCell id="gtJb8is8csFTxtvLVy0U-6" value="1" style="rounded=0;whiteSpace=wrap;html=1;" vertex="1" parent="1">
          <mxGeometry x="150" y="40" width="150" height="20" as="geometry" />
        </mxCell>
        <mxCell id="gtJb8is8csFTxtvLVy0U-7" value="Before AQE" style="text;html=1;strokeColor=none;fillColor=none;align=center;verticalAlign=middle;whiteSpace=wrap;rounded=0;" vertex="1" parent="1">
          <mxGeometry x="40" y="40" width="80" height="30" as="geometry" />
        </mxCell>
        <mxCell id="gtJb8is8csFTxtvLVy0U-10" value="2" style="rounded=0;whiteSpace=wrap;html=1;" vertex="1" parent="1">
          <mxGeometry x="150" y="60" width="50" height="20" as="geometry" />
        </mxCell>
        <mxCell id="gtJb8is8csFTxtvLVy0U-11" value="3" style="rounded=0;whiteSpace=wrap;html=1;" vertex="1" parent="1">
          <mxGeometry x="150" y="80" width="80" height="20" as="geometry" />
        </mxCell>
        <mxCell id="gtJb8is8csFTxtvLVy0U-12" value="4" style="rounded=0;whiteSpace=wrap;html=1;" vertex="1" parent="1">
          <mxGeometry x="150" y="100" width="40" height="20" as="geometry" />
        </mxCell>
        <mxCell id="gtJb8is8csFTxtvLVy0U-13" value="5" style="rounded=0;whiteSpace=wrap;html=1;" vertex="1" parent="1">
          <mxGeometry x="150" y="120" width="110" height="20" as="geometry" />
        </mxCell>
        <mxCell id="gtJb8is8csFTxtvLVy0U-14" value="6" style="rounded=0;whiteSpace=wrap;html=1;" vertex="1" parent="1">
          <mxGeometry x="150" y="140" width="20" height="20" as="geometry" />
        </mxCell>
        <mxCell id="gtJb8is8csFTxtvLVy0U-15" value="7" style="rounded=0;whiteSpace=wrap;html=1;" vertex="1" parent="1">
          <mxGeometry x="150" y="160" width="20" height="20" as="geometry" />
        </mxCell>
        <mxCell id="gtJb8is8csFTxtvLVy0U-16" value="8" style="rounded=0;whiteSpace=wrap;html=1;" vertex="1" parent="1">
          <mxGeometry x="150" y="180" width="20" height="20" as="geometry" />
        </mxCell>
        <mxCell id="gtJb8is8csFTxtvLVy0U-17" value="9" style="rounded=0;whiteSpace=wrap;html=1;" vertex="1" parent="1">
          <mxGeometry x="150" y="200" width="20" height="20" as="geometry" />
        </mxCell>
        <mxCell id="gtJb8is8csFTxtvLVy0U-18" value="10" style="rounded=0;whiteSpace=wrap;html=1;" vertex="1" parent="1">
          <mxGeometry x="150" y="220" width="20" height="20" as="geometry" />
        </mxCell>
        <mxCell id="gtJb8is8csFTxtvLVy0U-19" value="1" style="rounded=0;whiteSpace=wrap;html=1;" vertex="1" parent="1">
          <mxGeometry x="510" y="40" width="150" height="20" as="geometry" />
        </mxCell>
        <mxCell id="gtJb8is8csFTxtvLVy0U-20" value="After AQE" style="text;html=1;strokeColor=none;fillColor=none;align=center;verticalAlign=middle;whiteSpace=wrap;rounded=0;" vertex="1" parent="1">
          <mxGeometry x="400" y="40" width="80" height="30" as="geometry" />
        </mxCell>
        <mxCell id="gtJb8is8csFTxtvLVy0U-21" value="2" style="rounded=0;whiteSpace=wrap;html=1;" vertex="1" parent="1">
          <mxGeometry x="510" y="60" width="50" height="20" as="geometry" />
        </mxCell>
        <mxCell id="gtJb8is8csFTxtvLVy0U-22" value="3" style="rounded=0;whiteSpace=wrap;html=1;" vertex="1" parent="1">
          <mxGeometry x="510" y="80" width="80" height="20" as="geometry" />
        </mxCell>
        <mxCell id="gtJb8is8csFTxtvLVy0U-24" value="5" style="rounded=0;whiteSpace=wrap;html=1;" vertex="1" parent="1">
          <mxGeometry x="510" y="100" width="110" height="20" as="geometry" />
        </mxCell>
        <mxCell id="gtJb8is8csFTxtvLVy0U-31" value="4" style="rounded=0;whiteSpace=wrap;html=1;" vertex="1" parent="1">
          <mxGeometry x="560" y="60" width="40" height="20" as="geometry" />
        </mxCell>
      </root>
    </mxGraphModel>
  </diagram>
</mxfile>
